# xmcd
# 
# Track frame offsets:
#     150
#     10628
#     43145
#     71468
#     83730
#     92958
#     102190
#     126173
#     138128
#     155930
#     172303
#     180125
#     195028
#     209990
#     219948
#     231445
# 
# Disc length: 3238
# 
# Revision: 0
# Processed by: cddbd v1.5.2PL0 Copyright (c) Steve Scherf et al.
# Submitted via: fre:ac v1.1beta1pre3
# 
DISCID=dc0ca410
DTITLE=Buddy Guy - The Treasure Untold
DYEAR=1992
DGENRE=Blues
TTITLE0=First Time I Met The Blues
TTITLE1=Stone Crazy
TTITLE2=I Found A True Love
TTITLE3=Skippin'
TTITLE4=The Treasure Untold
TTITLE5=American Bandstand
TTITLE6=Don't Know Which Way To Go
TTITLE7=Buddy's Boogie
TTITLE8=Worried Blues (Stick Around)
TTITLE9=Moanin'
TTITLE10=I Dig Your Wig
TTITLE11=My Time After Awhile
TTITLE12=Night Flight
TTITLE13=You Got To Use Your Head
TTITLE14=Keep It To Yourself
TTITLE15=My Mother
EXTD=
EXTT0=
EXTT1=
EXTT2=
EXTT3=
EXTT4=
EXTT5=
EXTT6=
EXTT7=
EXTT8=
EXTT9=
EXTT10=
EXTT11=
EXTT12=
EXTT13=
EXTT14=
EXTT15=
PLAYORDER=
